<svg width="49" height="49" viewBox="0 0 49 49" fill="none" xmlns="http://www.w3.org/2000/svg">
    <circle cx="24.5" cy="24.5" r="24.5" fill="#F8F8F8"/>
    <path d="M36.4688 14.75H14.5312C13.1074 14.75 12 15.9102 12 17.2812V32.4688C12 33.8926 13.1074 35 14.5312 35H36.4688C37.8398 35 39 33.8926 39 32.4688V17.2812C39 15.9102 37.8398 14.75 36.4688 14.75ZM36.4688 17.2812V19.4434C35.2559 20.4453 33.3574 21.9219 29.3496 25.0859C28.4531 25.7715 26.7129 27.459 25.5 27.4062C24.2344 27.459 22.4941 25.7715 21.5977 25.0859C17.5898 21.9219 15.6914 20.4453 14.5312 19.4434V17.2812H36.4688ZM14.5312 32.4688V22.7129C15.6914 23.6621 17.4316 25.0332 20.0156 27.0898C21.1758 27.9863 23.2324 29.9902 25.5 29.9375C27.7148 29.9902 29.7188 27.9863 30.9316 27.0898C33.5156 25.0332 35.2559 23.6621 36.4688 22.7129V32.4688H14.5312Z" fill="#FF7000"/>
</svg>

    
    